<?xml version="1.0" standalone="no"?><!DOCTYPE svg PUBLIC "-//W3C//DTD SVG 1.1//EN" "http://www.w3.org/Graphics/SVG/1.1/DTD/svg11.dtd"><svg t="1626615464337" class="icon" viewBox="0 0 1024 1024" version="1.1" xmlns="http://www.w3.org/2000/svg" p-id="9965" xmlns:xlink="http://www.w3.org/1999/xlink" width="200" height="200"><defs><style type="text/css"></style></defs><path d="M874.666667 523.946667H149.333333A31.786667 31.786667 0 0 1 123.733333 512a32.853333 32.853333 0 0 1-5.12-28.373333l101.333334-343.466667a32.213333 32.213333 0 0 1 30.72-22.826667h522.666666a32.213333 32.213333 0 0 1 30.72 22.826667l101.333334 342.613333A32 32 0 0 1 874.666667 523.946667z m-682.666667-64h640L749.44 181.333333H274.56z" fill="#0190FF" p-id="9966"></path><path d="M810.666667 906.026667H213.333333A32 32 0 0 1 181.333333 874.666667V512a32 32 0 0 1 64 0v330.026667h533.333334V512a32 32 0 0 1 64 0v362.666667a32 32 0 0 1-32 31.36z" fill="#FD6400" p-id="9967"></path><path d="M761.813333 288H262.186667a32 32 0 0 1 0-64h499.626666a32 32 0 0 1 0 64z" fill="#FE6300" p-id="9968"></path><path d="M762.026667 224l17.28 58.666667a32 32 0 0 0-17.28-58.666667zM230.186667 256a32 32 0 0 0 14.506666 26.666667l17.28-58.666667a32.213333 32.213333 0 0 0-31.786666 32zM810.666667 480.64A32 32 0 0 0 778.666667 512v11.306667h64V512a32 32 0 0 0-32-31.36zM245.333333 523.946667V512a32 32 0 0 0-64 0v11.306667z" fill="#2F4E00" p-id="9969"></path></svg>